<svg width="540" height="123" viewBox="0 0 540 123" fill="none" xmlns="http://www.w3.org/2000/svg">
<g id="brush">
<path id="Vector" d="M130.333 1.8C95.8 3 46.8667 10.2 29.2667 16.6C22.3333 19 21.8 19.5333 23.9333 21.1333C26.0667 22.7333 26.2 22.8667 24.0667 23C19.4 23 15 25.5333 15.8 27.6667C16.2 28.7333 17.2667 29.2667 18.2 28.8667C19 28.4667 17.6667 29.9333 15.1333 32.0667C10.3333 36.2 10.4667 39.8 15.2667 38.2C17.5333 37.5333 17.9333 37.8 17.2667 39.5333C16.6 41.2667 17.4 41.9333 20.4667 42.6C25.4 43.5333 24.8667 45.6667 19.2667 48.2C14.2 50.4667 13.5333 53 18.3333 51.8C20.2 51.2667 21.6667 51.5333 21.6667 52.3333C21.6667 53 19.6667 53.6667 17.4 53.8C15 53.8 11.8 54.3333 10.3333 55C3.93334 57.5333 17.1333 59 28.8667 57C33.4 56.2 35.1333 56.3333 34.6 57.4C34.0667 58.0667 31.2667 59.1333 28.3333 59.6667C23.8 60.4667 19.4 63 22.6 63C23.2667 63 23.8 64.2 23.9333 65.6667C24.0667 67.1333 23.6667 68.3333 22.8667 68.3333C22.2 68.3333 21.6667 68.8667 21.6667 69.5333C21.6667 70.2 25.1333 71.1333 29.4 71.6667C36.7333 72.6 36.8667 72.7333 33 74.0667C29.2667 75.4 29.5333 75.5333 38.8667 77.8C47 79.6667 51.1333 79.8 61.5333 78.8667C78.4667 77.4 88.3333 77.5333 75.8 79.1333C66.0667 80.4667 59.5333 82.8667 65.6667 83C70.4667 83 75 84.4667 75 85.8C75 86.4667 69.8 87 63.4 87C48.3333 87 21.6667 89.4 19.8 90.8667C19 91.5333 14.6 92.3333 9.93334 92.7333C1.40001 93.4 -0.86666 94.2 0.73334 95.9333C1.26667 96.3333 8.33334 97.2667 16.6 97.9333C33 99.2667 39 101.533 27 101.8C23 101.933 21 102.333 22.6 102.6C25.9333 103.267 26.3333 108.2 23 108.467C20.8667 108.733 45.5333 111.933 51 112.2C53.6667 112.333 53.9333 112.6 52.3333 113.667C51.2667 114.467 45.6667 114.733 39.6667 114.467C29.4 113.8 29.2667 113.8 37 115C56.4667 117.933 108.867 121.667 137 122.067C153.933 122.467 163.8 122.467 159 122.067C149.8 121.533 145.667 119.667 151.133 118.467C152.867 118.067 213.667 117.4 286.333 117C359 116.6 426.467 115.667 436.333 115C446.2 114.333 461.4 113.4 470.067 112.867C478.733 112.333 485.133 111.4 484.2 110.867C483.133 110.333 485.8 109.133 490.6 108.2C496.067 107.133 498.467 105.933 498.067 104.867C497.667 103.8 499.533 102.867 503.933 102.333C512.067 101.267 513.933 100.6 509.4 100.467C507.267 100.333 505.667 99.8 505.667 99.1333C505.667 97.9333 508.2 97.2667 518.6 95.6667C521.667 95.1333 524.467 93.9333 524.867 92.8667C525.4 91.6667 527.933 90.8667 532.6 90.7333C537.933 90.6 537 90.3333 528.333 89.6667L517 89L528.333 87.6667L539.667 86.3333L521 85.5333C510.733 85 497.133 84.6 490.733 84.4667C483.933 84.4667 479 83.8 479 83C479 82.2 481.533 81.5333 484.733 81.4C489.8 81.2667 489.933 81.1333 485.933 80.7333C482.733 80.3333 481.667 79.6667 482.2 78.2C482.733 76.7333 481.667 76.3333 477.667 76.3333C474.733 76.3333 472.333 75.6667 472.333 75C472.333 74.2 473 73.6667 473.8 73.6667C478.467 73.6667 501.133 70.6 501.933 69.8C502.6 69.2667 499.133 69.1333 494.333 69.4C488.6 69.8 485.667 69.5333 485.667 68.4667C485.667 67.6667 487 66.7333 488.733 66.4667C495.933 65 516.733 63 525.133 62.8667L534.333 62.6L523.4 61.5333C517.267 61 511.667 60.0667 510.733 59.5333C508.2 57.9333 513.4 56.6 522.333 56.3333C534.333 56.0667 537.533 54.2 528.067 53C523.8 52.4667 520.333 51.5333 520.333 50.8667C520.333 50.2 518.2 49.6667 515.667 49.6667C512.2 49.6667 511.267 49.2667 511.8 47.6667C512.333 46.6 513.933 45.6667 515.533 45.6667C517.133 45.6667 519 45.1333 519.8 44.4667C520.467 43.6667 524.333 42.8667 528.333 42.6L535.667 42.2L527.4 41.9333C522.733 41.8 516.733 40.8667 514.067 39.8C507 37.2667 497 35 492.6 35C490.6 35 487.8 34.0667 486.467 33C484.467 31.5333 479.8 31 468.067 31C449.533 31 446.067 28.4667 464.067 28.0667C476.733 27.8 479.667 27.6667 495.667 26.0667C503.933 25.4 505.4 24.8667 502.333 24.2C500.2 23.6667 499.4 23.2667 500.733 23.1333C501.933 23.1333 503 22.3333 503 21.6667C503 20.8667 495.933 20.3333 484.733 20.3333C467.667 20.3333 431.267 19 381.933 16.8667C367.933 16.2 361.667 15.5333 362.067 14.4667C362.333 13.6667 365.267 13 368.467 12.8667C378.067 12.7333 393.667 10.8667 394.333 9.66666C394.733 9.13333 394.2 8.06666 393.267 7.26666C391 5.53333 295.933 3.53333 233 4.06666C183.267 4.46666 171.533 4.06666 172.867 1.93333C173.667 0.599996 163.133 0.599996 130.333 1.8ZM127.667 49.6667C128.2 50.4667 124.067 50.8667 116.067 50.7333L103.667 50.4667L113 49.6667C118.2 49.1333 123.4 48.7333 124.6 48.6C125.8 48.4667 127.267 48.8667 127.667 49.6667ZM143.8 51.9333C145.933 52.7333 145.933 52.8667 143.667 53.6667C140.6 54.7333 135 53.8 135 52.2C135 50.7333 140.467 50.6 143.8 51.9333ZM12.7333 94.6C11.8 94.8667 9.93334 94.8667 8.73334 94.6C7.40001 94.2 8.20001 93.9333 10.3333 93.9333C12.6 93.9333 13.5333 94.2 12.7333 94.6Z" fill="black"/>
<path id="Vector_2" d="M435.667 7.13333C439.4 7.66667 446.2 8.2 450.867 8.2C457.8 8.33333 459.133 8.73333 458.467 10.3333C457.933 11.8 458.6 12.3333 461 12.3333C462.733 12.3333 464.467 12.8667 464.867 13.4C465.533 14.4667 485.933 14.6 521.667 13.6667C534.333 13.4 535 13.2667 529 12.2C525.4 11.5333 517 10.7333 510.6 10.2C500.867 9.53333 499.267 9.13333 501.133 7.8C502.867 6.46667 495.933 6.2 466.2 6.2C445.667 6.2 432.067 6.73333 435.667 7.13333Z" fill="black"/>
<path id="Vector_3" d="M403 11.8L397 13.6667L406.333 13C411.533 12.6 419.267 12.3333 423.667 12.2C429.4 12.2 430.867 11.8 429 11C425 9.26666 409.8 9.79999 403 11.8Z" fill="black"/>
</g>
</svg>
